<svg xmlns="http://www.w3.org/2000/svg" width="1877" height="399" viewBox="0 0 1877 399">
<path d="M21.0,109.0 L12.0,124.0 L8.0,141.0 L8.0,340.0 L10.0,351.0 L15.0,363.0 L29.0,379.0 L41.0,386.0 L57.0,390.0 L283.0,390.0 L294.0,388.0 L306.0,383.0 L321.0,370.0 L330.0,354.0 L333.0,340.0 L333.0,141.0 L330.0,126.0 L324.0,114.0 L312.0,101.0 L303.0,95.0 L287.0,90.0 L54.0,90.0 L35.0,97.0 Z M61.0,142.0 L63.0,140.0 L114.0,140.0 L116.0,142.0 L116.0,271.0 L118.0,280.0 L122.0,288.0 L129.0,295.0 L140.0,300.0 L153.0,302.0 L188.0,302.0 L199.0,300.0 L208.0,296.0 L210.0,292.0 L213.0,292.0 L218.0,287.0 L222.0,278.0 L223.0,142.0 L225.0,140.0 L277.0,140.0 L278.0,283.0 L274.0,301.0 L266.0,316.0 L256.0,326.0 L247.0,331.0 L245.0,334.0 L240.0,334.0 L232.0,338.0 L213.0,341.0 L125.0,341.0 L104.0,337.0 L94.0,332.0 L90.0,332.0 L74.0,317.0 L70.0,311.0 L64.0,296.0 L62.0,286.0 Z" fill="rgb(2, 81, 46)" fill-rule="evenodd"/>
<path d="M1868.0,105.0 L1854.0,96.0 L1836.0,89.0 L1812.0,84.0 L1789.0,83.0 L1760.0,87.0 L1737.0,94.0 L1719.0,102.0 L1693.0,117.0 L1664.0,112.0 L1641.0,113.0 L1632.0,115.0 L1632.0,117.0 L1655.0,135.0 L1660.0,136.0 L1662.0,140.0 L1665.0,140.0 L1669.0,146.0 L1690.0,164.0 L1695.0,164.0 L1711.0,156.0 L1713.0,152.0 L1719.0,152.0 L1799.0,112.0 L1828.0,104.0 L1849.0,104.0 L1868.0,108.0 Z" fill="rgb(2, 81, 46)" fill-rule="evenodd"/>
<path d="M1184.0,74.0 L1217.0,66.0 L1240.0,63.0 L1241.0,60.0 L1243.0,60.0 L1244.0,62.0 L1281.0,61.0 L1282.0,59.0 L1284.0,59.0 L1285.0,62.0 L1294.0,63.0 L1306.0,68.0 L1313.0,68.0 L1314.0,71.0 L1323.0,75.0 L1330.0,75.0 L1333.0,77.0 L1333.0,79.0 L1375.0,98.0 L1454.0,138.0 L1459.0,138.0 L1463.0,140.0 L1464.0,143.0 L1474.0,148.0 L1479.0,148.0 L1483.0,150.0 L1485.0,154.0 L1493.0,158.0 L1497.0,158.0 L1499.0,161.0 L1505.0,164.0 L1510.0,164.0 L1523.0,154.0 L1524.0,150.0 L1528.0,150.0 L1582.0,110.0 L1626.0,83.0 L1658.0,67.0 L1670.0,63.0 L1671.0,60.0 L1680.0,60.0 L1689.0,57.0 L1704.0,55.0 L1727.0,58.0 L1727.0,54.0 L1712.0,46.0 L1694.0,41.0 L1668.0,39.0 L1646.0,42.0 L1612.0,52.0 L1584.0,63.0 L1524.0,91.0 L1512.0,98.0 L1507.0,98.0 L1492.0,88.0 L1489.0,88.0 L1484.0,83.0 L1441.0,57.0 L1375.0,20.0 L1358.0,13.0 L1342.0,9.0 L1313.0,8.0 L1292.0,13.0 L1245.0,35.0 L1200.0,61.0 L1188.0,69.0 L1187.0,72.0 L1184.0,72.0 Z" fill="rgb(2, 81, 46)" fill-rule="evenodd"/>
<path d="M384.0,240.0 L383.0,274.0 L485.0,274.0 L485.0,240.0 Z" fill="rgb(17, 31, 37)" fill-rule="evenodd"/>
<path d="M1691.0,177.0 L1690.0,353.0 L1866.0,354.0 L1866.0,315.0 L1742.0,314.0 L1742.0,177.0 Z" fill="rgb(17, 31, 37)" fill-rule="evenodd"/>
<path d="M1408.0,351.0 L1408.0,353.0 L1415.0,354.0 L1465.0,354.0 L1485.0,319.0 L1590.0,319.0 L1608.0,353.0 L1667.0,353.0 L1643.0,308.0 L1568.0,177.0 L1509.0,177.0 L1506.0,180.0 Z M1536.0,224.0 L1538.0,224.0 L1544.0,232.0 L1570.0,281.0 L1569.0,284.0 L1505.0,283.0 L1511.0,269.0 Z" fill="rgb(17, 31, 37)" fill-rule="evenodd"/>
<path d="M1233.0,177.0 L1233.0,216.0 L1303.0,217.0 L1303.0,353.0 L1355.0,353.0 L1355.0,217.0 L1428.0,216.0 L1428.0,178.0 Z" fill="rgb(17, 31, 37)" fill-rule="evenodd"/>
<path d="M1008.0,178.0 L1008.0,353.0 L1059.0,353.0 L1060.0,295.0 L1109.0,295.0 L1164.0,354.0 L1223.0,353.0 L1223.0,351.0 L1169.0,295.0 L1171.0,291.0 L1187.0,289.0 L1197.0,284.0 L1203.0,279.0 L1209.0,267.0 L1211.0,255.0 L1210.0,208.0 L1207.0,198.0 L1198.0,187.0 L1186.0,181.0 L1159.0,177.0 Z M1059.0,216.0 L1150.0,216.0 L1154.0,218.0 L1160.0,226.0 L1159.0,252.0 L1153.0,258.0 L1146.0,260.0 L1060.0,260.0 Z" fill="rgb(17, 31, 37)" fill-rule="evenodd"/>
<path d="M772.0,191.0 L767.0,199.0 L763.0,214.0 L763.0,317.0 L769.0,336.0 L779.0,346.0 L794.0,352.0 L813.0,354.0 L933.0,354.0 L948.0,352.0 L957.0,349.0 L966.0,344.0 L972.0,338.0 L979.0,323.0 L981.0,309.0 L981.0,222.0 L977.0,202.0 L973.0,194.0 L966.0,187.0 L955.0,181.0 L936.0,177.0 L808.0,177.0 L785.0,182.0 Z M818.0,223.0 L824.0,218.0 L832.0,216.0 L913.0,216.0 L922.0,219.0 L928.0,226.0 L930.0,235.0 L930.0,298.0 L927.0,307.0 L922.0,312.0 L915.0,315.0 L828.0,315.0 L820.0,311.0 L816.0,306.0 L814.0,298.0 L814.0,236.0 L815.0,229.0 Z" fill="rgb(17, 31, 37)" fill-rule="evenodd"/>
<path d="M535.0,178.0 L536.0,354.0 L586.0,353.0 L587.0,300.0 L697.0,299.0 L717.0,295.0 L726.0,290.0 L733.0,282.0 L737.0,273.0 L739.0,262.0 L739.0,218.0 L736.0,201.0 L732.0,193.0 L723.0,185.0 L711.0,180.0 L687.0,177.0 Z M587.0,216.0 L678.0,216.0 L686.0,222.0 L688.0,228.0 L687.0,253.0 L681.0,260.0 L675.0,262.0 L588.0,262.0 Z" fill="rgb(17, 31, 37)" fill-rule="evenodd"/>
</svg>